<?xml version="1.0" encoding="UTF-8" standalone="no"?>
<!DOCTYPE svg PUBLIC "-//W3C//DTD SVG 1.1//EN"
 "http://www.w3.org/Graphics/SVG/1.1/DTD/svg11.dtd">
<!-- Generated by graphviz version 2.40.1 (20161225.0304)
 -->
<!-- Title: architecture Pages: 1 -->
<svg width="657pt" height="236pt"
 viewBox="0.00 0.00 657.00 236.00" xmlns="http://www.w3.org/2000/svg" xmlns:xlink="http://www.w3.org/1999/xlink">
<g id="graph0" class="graph" transform="scale(1 1) rotate(0) translate(4 232)">
<title>architecture</title>
<polygon fill="#cccccc" stroke="transparent" points="-4,4 -4,-232 653,-232 653,4 -4,4"/>
<g id="clust1" class="cluster">
<title>cluster_studio</title>
<polygon fill="#ffffff" stroke="#000000" points="8,-8 8,-220 641,-220 641,-8 8,-8"/>
<text text-anchor="middle" x="324.5" y="-204.8" font-family="Helvetica,sans-Serif" font-size="14.00" fill="#000000">Mule Migration Assistant Architecture</text>
</g>
<!-- migrationTasks -->
<g id="node1" class="node">
<title>migrationTasks</title>
<polygon fill="#dadaea" stroke="transparent" points="423.5,-80 423.5,-126 632.5,-126 632.5,-80 423.5,-80"/>
<text text-anchor="start" x="428.897" y="-109.8" font-family="Helvetica,sans-Serif" font-size="14.00" fill="#000000">External Migration Contributions</text>
<polygon fill="#bcbeda" stroke="transparent" points="427,-83 427,-103 630,-103 630,-83 427,-83"/>
<polygon fill="none" stroke="#000000" points="427,-83 427,-103 630,-103 630,-83 427,-83"/>
<text text-anchor="start" x="479.9956" y="-88.8" font-family="Helvetica,sans-Serif" font-size="14.00" fill="#000000">Migration Tasks</text>
<polygon fill="none" stroke="#000000" points="423.5,-80 423.5,-126 632.5,-126 632.5,-80 423.5,-80"/>
</g>
<!-- runner -->
<g id="node2" class="node">
<title>runner</title>
<polygon fill="#f4c7c2" stroke="transparent" points="16.5,-16 16.5,-190 351.5,-190 351.5,-16 16.5,-16"/>
<text text-anchor="start" x="130.8071" y="-173.8" font-family="Helvetica,sans-Serif" font-size="14.00" fill="#000000">Migration Runner</text>
<polygon fill="#edb1bf" stroke="transparent" points="22,-21 22,-165 185,-165 185,-21 22,-21"/>
<text text-anchor="start" x="88.7173" y="-148.8" font-family="Helvetica,sans-Serif" font-size="14.00" fill="#000000">APIs</text>
<polygon fill="#e396ad" stroke="transparent" points="25,-102 25,-132 182,-132 182,-102 25,-102"/>
<polygon fill="none" stroke="#000000" points="25,-102 25,-132 182,-132 182,-102 25,-102"/>
<text text-anchor="start" x="73.1484" y="-112.8" font-family="Helvetica,sans-Serif" font-size="14.00" fill="#000000">Reporting</text>
<polygon fill="#e396ad" stroke="transparent" points="25,-70 25,-100 182,-100 182,-70 25,-70"/>
<polygon fill="none" stroke="#000000" points="25,-70 25,-100 182,-100 182,-70 25,-70"/>
<text text-anchor="start" x="72.7588" y="-80.8" font-family="Helvetica,sans-Serif" font-size="14.00" fill="#000000">Exception</text>
<polygon fill="#e396ad" stroke="transparent" points="25,-24 25,-68 182,-68 182,-24 25,-24"/>
<polygon fill="none" stroke="#000000" points="25,-24 25,-68 182,-68 182,-24 25,-24"/>
<text text-anchor="start" x="67.9736" y="-48.8" font-family="Helvetica,sans-Serif" font-size="14.00" fill="#000000">MEL to DW</text>
<text text-anchor="start" x="27.6416" y="-34.8" font-family="Helvetica,sans-Serif" font-size="14.00" fill="#000000">Expressions transformer</text>
<polygon fill="none" stroke="#000000" points="22,-21 22,-165 185,-165 185,-21 22,-21"/>
<polygon fill="#cadbed" stroke="transparent" points="191,-21 191,-165 347,-165 347,-21 191,-21"/>
<text text-anchor="start" x="225.814" y="-148.8" font-family="Helvetica,sans-Serif" font-size="14.00" fill="#000000">Tasks Locator</text>
<polygon fill="#a7c9df" stroke="transparent" points="194,-24 194,-142 344,-142 344,-24 194,-24"/>
<polygon fill="none" stroke="#000000" points="194,-24 194,-142 344,-142 344,-24 194,-24"/>
<text text-anchor="start" x="251.1069" y="-123.8" font-family="Helvetica,sans-Serif" font-size="14.00" fill="#000000">Tasks</text>
<polygon fill="#7aacd2" stroke="transparent" points="201,-91 201,-115 337,-115 337,-91 201,-91"/>
<text text-anchor="start" x="205.9761" y="-98.8" font-family="Helvetica,sans-Serif" font-size="14.00" fill="#000000">Mule Core Migration</text>
<polygon fill="none" stroke="#000000" points="201,-91 201,-115 337,-115 337,-91 201,-91"/>
<polygon fill="#7aacd2" stroke="transparent" points="201,-61 201,-85 337,-85 337,-61 201,-61"/>
<text text-anchor="start" x="250.7207" y="-68.8" font-family="Helvetica,sans-Serif" font-size="14.00" fill="#000000">MUnit</text>
<polygon fill="none" stroke="#000000" points="201,-61 201,-85 337,-85 337,-61 201,-61"/>
<polygon fill="#7aacd2" stroke="transparent" points="201,-31 201,-55 337,-55 337,-31 201,-31"/>
<text text-anchor="start" x="263.1655" y="-38.8" font-family="Helvetica,sans-Serif" font-size="14.00" fill="#000000">...</text>
<polygon fill="none" stroke="#000000" points="201,-31 201,-55 337,-55 337,-31 201,-31"/>
<polygon fill="none" stroke="#000000" points="191,-21 191,-165 347,-165 347,-21 191,-21"/>
<polygon fill="none" stroke="#000000" points="16.5,-16 16.5,-190 351.5,-190 351.5,-16 16.5,-16"/>
</g>
<!-- migrationTasks&#45;&gt;runner -->
<g id="edge2" class="edge">
<title>migrationTasks:w&#45;&gt;runner:e</title>
<path fill="none" stroke="#000000" d="M427,-114C389.9036,-114 385.3418,-146.307 354.0915,-152.1122"/>
<polygon fill="#000000" stroke="#000000" points="353.6547,-148.637 344,-153 354.2683,-155.61 353.6547,-148.637"/>
<text text-anchor="middle" x="388" y="-142.8" font-family="Helvetica,sans-Serif" font-size="14.00" fill="#000000">SPI</text>
</g>
<!-- runner&#45;&gt;migrationTasks -->
</g>
</svg>
